<svg xmlns="http://www.w3.org/2000/svg" xmlns:xlink="http://www.w3.org/1999/xlink" width="2000" zoomAndPan="magnify" viewBox="0 0 1500 1499.999933" height="2000" preserveAspectRatio="xMidYMid meet" version="1.0"><defs><clipPath id="4ddc06f8c9"><path d="M 0.238281 0.703125 L 1325.523438 0.703125 L 1325.523438 1325.992188 L 0.238281 1325.992188 Z M 0.238281 0.703125 " clip-rule="nonzero"/></clipPath><clipPath id="099047ae6c"><path d="M 662.882812 0.703125 C 296.914062 0.703125 0.238281 297.378906 0.238281 663.347656 C 0.238281 1029.316406 296.914062 1325.992188 662.882812 1325.992188 C 1028.851562 1325.992188 1325.523438 1029.316406 1325.523438 663.347656 C 1325.523438 297.378906 1028.851562 0.703125 662.882812 0.703125 Z M 662.882812 0.703125 " clip-rule="nonzero"/></clipPath><clipPath id="1d1913bcdc"><path d="M 0.238281 0.703125 L 1325.523438 0.703125 L 1325.523438 1325.992188 L 0.238281 1325.992188 Z M 0.238281 0.703125 " clip-rule="nonzero"/></clipPath><clipPath id="45df1cf84a"><path d="M 662.882812 0.703125 C 296.914062 0.703125 0.238281 297.378906 0.238281 663.347656 C 0.238281 1029.316406 296.914062 1325.992188 662.882812 1325.992188 C 1028.851562 1325.992188 1325.523438 1029.316406 1325.523438 663.347656 C 1325.523438 297.378906 1028.851562 0.703125 662.882812 0.703125 Z M 662.882812 0.703125 " clip-rule="nonzero"/></clipPath><clipPath id="6a69a207b8"><rect x="0" width="1326" y="0" height="1326"/></clipPath><clipPath id="fcd8bb603f"><path d="M 0.238281 410 L 167 410 L 167 438 L 0.238281 438 Z M 0.238281 410 " clip-rule="nonzero"/></clipPath><clipPath id="c738ab8fd0"><path d="M 1175 410 L 1341.761719 410 L 1341.761719 438 L 1175 438 Z M 1175 410 " clip-rule="nonzero"/></clipPath><clipPath id="babaa3f8a4"><rect x="0" width="1342" y="0" height="1420"/></clipPath></defs><rect x="-150" width="1800" fill="#ffffff" y="-149.999993" height="1799.99992" fill-opacity="1"/><rect x="-150" width="1800" fill="#ffffff" y="-149.999993" height="1799.99992" fill-opacity="1"/><g transform="matrix(1, 0, 0, 1, 79, 40)"><g clip-path="url(#babaa3f8a4)"><g clip-path="url(#4ddc06f8c9)"><g clip-path="url(#099047ae6c)"><g transform="matrix(1, 0, 0, 1, 0, 0.000000000000113687)"><g clip-path="url(#6a69a207b8)"><g clip-path="url(#1d1913bcdc)"><g clip-path="url(#45df1cf84a)"><path fill="#ffde59" d="M 0.238281 0.703125 L 1325.523438 0.703125 L 1325.523438 1325.992188 L 0.238281 1325.992188 Z M 0.238281 0.703125 " fill-opacity="1" fill-rule="nonzero"/></g></g></g></g></g></g><path fill="#000000" d="M 829.058594 717.867188 L 513.730469 717.867188 C 505.867188 717.867188 498 713.148438 485.421875 706.855469 C 452.394531 690.34375 383.980469 656.53125 253.445312 656.53125 C 246.367188 656.53125 240.078125 650.238281 240.078125 643.164062 C 240.078125 636.085938 246.367188 629.792969 253.445312 629.792969 C 390.269531 629.792969 462.617188 665.964844 497.214844 683.265625 C 503.507812 687.199219 511.371094 691.128906 513.730469 691.128906 L 828.269531 691.128906 C 831.417969 691.128906 838.492188 687.199219 845.570312 683.265625 C 879.382812 665.964844 950.941406 629.792969 1089.339844 629.792969 C 1096.417969 629.792969 1101.921875 636.085938 1101.921875 643.164062 C 1101.921875 650.238281 1096.417969 656.53125 1089.339844 656.53125 C 957.234375 656.53125 889.605469 690.34375 857.367188 706.855469 C 844 713.933594 836.132812 717.867188 829.058594 717.867188 Z M 1089.339844 559.808594 L 253.445312 559.808594 C 246.367188 559.808594 240.078125 553.519531 240.078125 546.441406 C 240.078125 539.363281 246.367188 533.074219 253.445312 533.074219 L 1089.339844 533.074219 C 1096.417969 533.074219 1101.921875 539.363281 1101.921875 546.441406 C 1101.921875 553.519531 1096.417969 559.808594 1089.339844 559.808594 Z M 1089.339844 559.808594 " fill-opacity="1" fill-rule="evenodd"/><path fill="#000000" d="M 475.199219 559.808594 C 473.625 559.808594 472.050781 559.023438 470.480469 558.234375 C 463.402344 555.875 460.257812 548.011719 462.617188 541.722656 L 486.207031 484.316406 C 494.855469 463.875 509.796875 426.128906 549.113281 426.128906 L 793.671875 426.128906 C 830.628906 426.128906 845.570312 459.15625 855.792969 483.53125 C 855.792969 483.53125 855.792969 483.53125 855.792969 484.316406 L 879.382812 541.722656 C 882.53125 548.011719 879.382812 555.875 872.308594 558.234375 C 866.015625 561.382812 858.152344 558.234375 855.007812 551.160156 L 831.417969 493.753906 C 819.621094 466.230469 810.183594 452.863281 793.671875 452.863281 L 549.113281 452.863281 C 531.027344 452.863281 521.59375 467.804688 510.582031 493.753906 L 486.992188 551.160156 C 485.421875 556.664062 479.914062 559.808594 475.199219 559.808594 Z M 475.199219 559.808594 " fill-opacity="1" fill-rule="evenodd"/><path fill="#000000" d="M 302.199219 1008.03125 L 268.386719 1008.03125 C 254.230469 1008.03125 242.4375 997.023438 242.4375 983.652344 L 242.4375 897.15625 C 242.4375 894.007812 243.222656 891.652344 244.796875 889.292969 L 376.117188 706.855469 C 402.851562 665.964844 429.589844 665.964844 437.453125 666.753906 L 458.683594 666.753906 C 465.761719 666.753906 472.050781 673.042969 472.050781 680.121094 C 472.050781 687.199219 465.761719 693.488281 458.683594 693.488281 L 436.664062 693.488281 C 435.09375 693.488281 435.09375 693.488281 433.519531 692.703125 C 431.949219 692.703125 416.222656 693.488281 398.132812 721.796875 C 398.132812 721.796875 398.132812 721.796875 397.347656 722.585938 L 269.171875 901.085938 L 269.171875 982.082031 L 300.625 982.082031 L 300.625 938.046875 C 300.625 934.898438 301.414062 932.542969 302.984375 930.183594 L 413.863281 768.191406 C 416.222656 765.046875 420.152344 762.6875 424.871094 762.6875 L 538.890625 762.6875 C 545.96875 762.6875 552.261719 768.980469 552.261719 776.054688 C 552.261719 783.132812 545.96875 788.636719 538.890625 788.636719 L 431.949219 788.636719 L 327.363281 941.976562 L 327.363281 983.652344 C 327.363281 997.023438 315.566406 1008.03125 302.199219 1008.03125 Z M 302.199219 1008.03125 " fill-opacity="1" fill-rule="evenodd"/><path fill="#000000" d="M 1074.398438 1008.03125 L 1040.585938 1008.03125 C 1026.433594 1008.03125 1015.421875 997.808594 1015.421875 983.652344 L 1015.421875 941.976562 L 910.839844 788.636719 L 803.894531 788.636719 C 796.816406 788.636719 790.527344 783.132812 790.527344 776.054688 C 790.527344 768.980469 796.816406 762.6875 803.894531 762.6875 L 917.914062 762.6875 C 921.847656 762.6875 925.777344 765.046875 928.925781 768.191406 L 1039.800781 930.183594 C 1040.585938 932.542969 1041.375 934.898438 1041.375 938.046875 L 1041.375 982.082031 L 1072.828125 982.082031 L 1072.828125 901.085938 L 943.867188 722.585938 C 943.867188 721.796875 943.867188 721.796875 943.867188 721.796875 C 925.777344 693.488281 910.839844 692.703125 908.480469 692.703125 C 907.691406 693.488281 906.90625 692.703125 906.121094 693.488281 L 883.316406 693.488281 C 876.238281 693.488281 869.949219 687.199219 869.949219 680.121094 C 869.949219 673.042969 876.238281 666.753906 883.316406 666.753906 L 904.546875 666.753906 C 912.410156 665.964844 939.148438 665.964844 965.882812 707.644531 L 1096.417969 889.292969 C 1097.992188 891.652344 1098.777344 894.007812 1098.777344 897.15625 L 1098.777344 983.652344 C 1098.777344 997.023438 1087.769531 1008.03125 1074.398438 1008.03125 Z M 1074.398438 1008.03125 " fill-opacity="1" fill-rule="evenodd"/><path fill="#000000" d="M 220.417969 482.746094 C 213.339844 482.746094 207.050781 476.453125 207.050781 469.378906 L 207.050781 423.769531 C 207.050781 411.972656 198.398438 403.324219 186.605469 403.324219 C 175.597656 403.324219 166.945312 411.972656 166.945312 423.769531 L 166.945312 469.378906 C 166.945312 476.453125 160.65625 482.746094 153.578125 482.746094 C 146.5 482.746094 140.210938 476.453125 140.210938 469.378906 L 140.210938 423.769531 C 140.210938 397.820312 161.441406 376.585938 186.605469 376.585938 C 212.554688 376.585938 233.785156 397.03125 233.785156 423.769531 L 233.785156 469.378906 C 233.785156 476.453125 227.496094 482.746094 220.417969 482.746094 Z M 220.417969 482.746094 " fill-opacity="1" fill-rule="evenodd"/><g clip-path="url(#fcd8bb603f)"><path fill="#000000" d="M 153.578125 437.136719 L 13.605469 437.136719 C 6.53125 437.136719 0.238281 430.847656 0.238281 423.769531 C 0.238281 416.691406 6.53125 410.402344 13.605469 410.402344 L 153.578125 410.402344 C 160.65625 410.402344 166.945312 416.691406 166.945312 423.769531 C 166.945312 430.847656 160.65625 437.136719 153.578125 437.136719 Z M 153.578125 437.136719 " fill-opacity="1" fill-rule="evenodd"/></g><path fill="#000000" d="M 360.390625 437.136719 L 220.417969 437.136719 C 213.339844 437.136719 207.050781 430.847656 207.050781 423.769531 C 207.050781 416.691406 213.339844 410.402344 220.417969 410.402344 L 360.390625 410.402344 C 367.464844 410.402344 373.757812 416.691406 373.757812 423.769531 C 373.757812 430.847656 367.464844 437.136719 360.390625 437.136719 Z M 360.390625 437.136719 " fill-opacity="1" fill-rule="evenodd"/><path fill="#000000" d="M 203.90625 775.269531 L 120.550781 775.269531 C 113.472656 775.269531 107.183594 769.765625 107.183594 762.6875 L 107.183594 526.78125 C 107.183594 482.746094 142.570312 446.574219 186.605469 446.574219 C 230.640625 446.574219 266.8125 482.746094 266.8125 526.78125 L 266.8125 664.394531 C 266.8125 665.964844 266.027344 668.324219 265.242188 669.898438 L 215.699219 768.191406 C 213.339844 772.910156 208.621094 775.269531 203.90625 775.269531 Z M 133.917969 749.320312 L 196.042969 749.320312 L 240.078125 661.25 L 240.078125 526.78125 C 240.078125 496.898438 216.488281 473.308594 186.605469 473.308594 C 157.507812 473.308594 133.917969 496.898438 133.917969 526.78125 Z M 133.917969 749.320312 " fill-opacity="1" fill-rule="evenodd"/><path fill="#000000" d="M 1189.207031 482.746094 C 1182.132812 482.746094 1175.839844 476.453125 1175.839844 469.378906 L 1175.839844 423.769531 C 1175.839844 411.972656 1167.191406 403.324219 1155.394531 403.324219 C 1144.386719 403.324219 1134.949219 411.972656 1134.949219 423.769531 L 1134.949219 469.378906 C 1134.949219 476.453125 1129.445312 482.746094 1122.367188 482.746094 C 1115.289062 482.746094 1109 476.453125 1109 469.378906 L 1109 423.769531 C 1109 397.820312 1129.445312 376.585938 1155.394531 376.585938 C 1181.34375 376.585938 1201.789062 397.03125 1201.789062 423.769531 L 1201.789062 469.378906 C 1201.789062 476.453125 1196.285156 482.746094 1189.207031 482.746094 Z M 1189.207031 482.746094 " fill-opacity="1" fill-rule="evenodd"/><g clip-path="url(#c738ab8fd0)"><path fill="#000000" d="M 1329.179688 437.136719 L 1189.207031 437.136719 C 1182.132812 437.136719 1175.839844 430.847656 1175.839844 423.769531 C 1175.839844 416.691406 1182.132812 410.402344 1189.207031 410.402344 L 1329.179688 410.402344 C 1336.257812 410.402344 1341.761719 416.691406 1341.761719 423.769531 C 1341.761719 430.847656 1336.257812 437.136719 1329.179688 437.136719 Z M 1329.179688 437.136719 " fill-opacity="1" fill-rule="evenodd"/></g><path fill="#000000" d="M 1122.367188 437.136719 L 982.398438 437.136719 C 975.320312 437.136719 969.027344 430.847656 969.027344 423.769531 C 969.027344 416.691406 975.320312 410.402344 982.398438 410.402344 L 1122.367188 410.402344 C 1129.445312 410.402344 1134.949219 416.691406 1134.949219 423.769531 C 1134.949219 430.847656 1129.445312 437.136719 1122.367188 437.136719 Z M 1122.367188 437.136719 " fill-opacity="1" fill-rule="evenodd"/><path fill="#000000" d="M 1222.234375 775.269531 L 1138.09375 775.269531 C 1132.589844 775.269531 1128.660156 772.910156 1126.300781 768.191406 L 1077.546875 669.898438 C 1076.757812 668.324219 1075.972656 665.964844 1075.972656 664.394531 L 1075.972656 526.78125 C 1075.972656 482.746094 1111.359375 446.574219 1155.394531 446.574219 C 1199.429688 446.574219 1234.816406 482.746094 1234.816406 526.78125 L 1234.816406 762.6875 C 1234.816406 769.765625 1229.3125 775.269531 1222.234375 775.269531 Z M 1145.957031 749.320312 L 1208.867188 749.320312 L 1208.867188 526.78125 C 1208.867188 496.898438 1184.488281 473.308594 1155.394531 473.308594 C 1126.300781 473.308594 1101.921875 496.898438 1101.921875 526.78125 L 1101.921875 661.25 Z M 1145.957031 749.320312 " fill-opacity="1" fill-rule="evenodd"/><path fill="#000000" d="M 773.226562 849.1875 L 568.773438 849.1875 C 544.398438 849.1875 525.523438 830.316406 525.523438 805.9375 L 525.523438 776.054688 C 525.523438 768.980469 531.816406 762.6875 538.890625 762.6875 L 803.894531 762.6875 C 810.972656 762.6875 816.476562 768.980469 816.476562 776.054688 L 816.476562 805.9375 C 816.476562 830.316406 797.601562 849.1875 773.226562 849.1875 Z M 552.261719 788.636719 L 552.261719 805.9375 C 552.261719 815.375 559.335938 823.238281 568.773438 823.238281 L 773.226562 823.238281 C 783.449219 823.238281 790.527344 816.160156 790.527344 805.9375 L 790.527344 788.636719 Z M 552.261719 788.636719 " fill-opacity="1" fill-rule="evenodd"/><path fill="#000000" d="M 701.667969 928.609375 C 694.589844 928.609375 688.300781 923.105469 688.300781 916.027344 L 688.300781 836.605469 C 688.300781 829.527344 694.589844 823.238281 701.667969 823.238281 C 708.746094 823.238281 714.25 829.527344 714.25 836.605469 L 714.25 916.027344 C 714.25 923.105469 708.746094 928.609375 701.667969 928.609375 Z M 641.117188 928.609375 C 634.042969 928.609375 627.75 923.105469 627.75 916.027344 L 627.75 836.605469 C 627.75 829.527344 634.042969 823.238281 641.117188 823.238281 C 648.195312 823.238281 654.488281 829.527344 654.488281 836.605469 L 654.488281 916.027344 C 654.488281 923.105469 648.195312 928.609375 641.117188 928.609375 Z M 641.117188 928.609375 " fill-opacity="1" fill-rule="evenodd"/><path fill="#000000" d="M 748.0625 1120.480469 L 593.9375 1120.480469 C 573.492188 1120.480469 556.191406 1103.179688 556.191406 1082.734375 L 556.191406 941.191406 C 556.191406 919.960938 573.492188 902.660156 593.9375 902.660156 L 748.0625 902.660156 C 769.292969 902.660156 785.808594 919.960938 785.808594 941.191406 L 785.808594 1082.734375 C 785.808594 1103.964844 769.292969 1120.480469 748.0625 1120.480469 Z M 593.9375 928.609375 C 587.644531 928.609375 582.929688 934.113281 582.929688 941.191406 L 582.929688 1082.734375 C 582.929688 1089.027344 587.644531 1094.53125 593.9375 1094.53125 L 748.0625 1094.53125 C 755.140625 1094.53125 759.859375 1088.238281 759.859375 1082.734375 L 759.859375 941.191406 C 759.859375 934.113281 755.140625 928.609375 748.0625 928.609375 Z M 593.9375 928.609375 " fill-opacity="1" fill-rule="evenodd"/><path fill="#000000" d="M 671 1079.589844 C 634.042969 1079.589844 602.585938 1048.921875 602.585938 1011.964844 C 602.585938 974.21875 633.253906 943.550781 671 943.550781 C 708.746094 943.550781 738.625 973.429688 738.625 1011.964844 C 738.625 1049.707031 708.746094 1079.589844 671 1079.589844 Z M 671 969.5 C 647.410156 969.5 629.324219 988.371094 629.324219 1011.964844 C 629.324219 1034.765625 648.195312 1053.640625 671 1053.640625 C 693.804688 1053.640625 712.675781 1034.765625 712.675781 1011.964844 C 712.675781 988.371094 694.589844 969.5 671 969.5 Z M 671 969.5 " fill-opacity="1" fill-rule="evenodd"/><path fill="#000000" d="M 672.574219 1024.542969 L 670.214844 1024.542969 C 663.136719 1024.542969 656.84375 1019.039062 656.84375 1011.964844 C 656.84375 1004.886719 663.136719 998.59375 670.214844 998.59375 L 672.574219 998.59375 C 679.648438 998.59375 685.941406 1004.886719 685.941406 1011.964844 C 685.941406 1019.039062 679.648438 1024.542969 672.574219 1024.542969 Z M 672.574219 1024.542969 " fill-opacity="1" fill-rule="evenodd"/></g></g></svg>